<svg width="40" height="40" viewBox="0 0 40 40" fill="none" xmlns="http://www.w3.org/2000/svg">
<path d="M0 20C0 8.95431 8.95431 0 20 0C31.0457 0 40 8.95431 40 20C40 31.0457 31.0457 40 20 40C8.95431 40 0 31.0457 0 20Z" fill="#0066F9"/>
<g clip-path="url(#clip0_56_307)">
<path fill-rule="evenodd" clip-rule="evenodd" d="M29.08 16.915C28.6655 16.5643 28.4286 16.0541 28.4286 15.5165H28.4195V14.8514L18.5933 25.575C18.5402 25.6303 18.4858 25.6866 18.4298 25.7446C18.255 25.9257 18.0647 26.1228 17.8508 26.354L17.5501 26.682L15.2405 29.1283C14.0014 30.4949 12.6348 31.078 10.6714 31.078H10.5165C8.60772 31.0324 6.89943 30.2489 5.69678 28.8823C4.4167 27.4336 3.82904 25.4884 4.04315 23.4066C4.23448 21.548 4.38936 19.5162 4.50325 17.9582C4.5488 17.325 4.58525 16.8558 4.60347 16.6645C4.91324 13.6716 5.60112 11.7719 6.76732 10.6786C7.3322 10.1547 8.06108 9.6673 8.81728 9.31198C9.69648 8.89743 10.5802 8.67421 11.3774 8.66054C12.9992 8.63776 14.8077 9.08876 16.2108 9.87685C17.1674 10.4098 17.5957 10.6012 17.7779 10.6741C18.1697 10.6832 19.1628 10.6923 20.124 10.6923H20.1741C20.6888 10.7014 21.1672 10.8927 21.5316 11.2298C21.9553 11.6216 22.1876 12.1546 22.1876 12.7331C22.1876 13.8447 21.2856 14.7603 20.1741 14.774H18.2562C18.1378 14.774 18.0284 14.774 17.9282 14.7694C17.7144 14.7767 17.5497 14.7724 17.4706 14.7703C17.4502 14.7698 17.4355 14.7694 17.4271 14.7694C16.7028 14.733 15.9284 14.4141 14.2201 13.4666C13.4229 13.0201 12.3022 12.7286 11.4458 12.765C10.9037 12.7741 10.0245 13.257 9.56892 13.6807C9.56828 13.6815 9.56716 13.6827 9.5656 13.6844C9.51352 13.7418 8.9728 14.3371 8.68972 17.0882C8.67152 17.2613 8.6396 17.6849 8.5986 18.2635L8.5804 18.5049C8.48016 19.867 8.32072 21.9215 8.1294 23.8303C8.03828 24.755 8.26608 25.5932 8.78084 26.1809C9.22728 26.6866 9.86504 26.9644 10.6212 26.9826C11.2954 27.0054 11.9879 26.7139 12.4616 26.2219C12.94 25.7253 13.2862 25.3381 13.5914 24.9919C13.6076 24.9736 13.6237 24.9554 13.6396 24.9372C13.7583 24.8026 13.8708 24.675 13.9832 24.5546L14.1381 24.3769C14.4433 24.0307 14.457 24.017 14.457 24.017L16.0468 22.3042L25.8001 11.6489H25.012C24.5291 11.6489 24.0736 11.4622 23.7319 11.1205C23.3902 10.7788 23.1944 10.3233 23.1944 9.83586C23.1944 9.34386 23.3857 8.88832 23.7319 8.5421C24.0736 8.20044 24.5291 8.00911 25.0165 8H30.2462C30.7473 8 31.1892 8.18677 31.5354 8.52844C31.8816 8.87465 32.073 9.33475 32.073 9.82219V15.4254C32.073 16.3502 31.4306 17.161 30.5788 17.3114C30.0367 17.407 29.4946 17.2613 29.08 16.915ZM35.6535 20.2269L35.945 23.4385L35.9496 23.4431C36.0179 24.0308 36.273 27.0829 34.3871 29.2149C33.64 30.0713 32.2551 31.0872 29.9045 31.0872C25.5176 31.0872 23.2945 27.8756 22.4563 26.6638L22.429 26.6228C22.4191 26.609 22.41 26.5951 22.4015 26.582C22.3904 26.565 22.38 26.5492 22.3698 26.5362C22.3293 26.4918 22.296 26.4472 22.2604 26.3996C22.2559 26.3936 22.2513 26.3875 22.2468 26.3814C22.2103 26.3312 22.1784 26.2812 22.1465 26.231C21.9051 25.8438 21.8049 25.3928 21.855 24.9373C21.9142 24.3906 22.1784 23.8986 22.6066 23.557C23.0348 23.2108 23.5678 23.0559 24.1145 23.1151C24.3559 23.1379 24.5928 23.2062 24.8115 23.3201C25.0848 23.4522 25.3399 23.6618 25.5358 23.926C25.554 23.9578 25.5677 23.9806 25.5859 23.9988C25.6457 24.0727 25.7028 24.1547 25.7655 24.2448C25.784 24.2714 25.803 24.2988 25.8228 24.3268L25.824 24.3287C26.753 25.6721 27.7916 27.174 29.7724 27.0784C30.7928 27.0191 31.2256 26.5955 31.303 26.5089C31.9317 25.7983 31.8861 24.4088 31.8634 23.885V23.8348C31.834 23.5067 31.8019 23.1574 31.7687 22.7949C31.7401 22.4831 31.7106 22.1615 31.6811 21.835L31.5354 20.2497L31.549 20.2315C31.549 20.1677 31.5536 20.1039 31.5627 20.0356C31.6674 19.0425 32.4738 18.2772 33.476 18.218C33.5899 18.2043 33.7129 18.2088 33.8268 18.2225C34.7014 18.3136 35.4075 18.9423 35.5988 19.7987L35.6216 19.8169V19.9172C35.6241 19.9422 35.6266 19.9686 35.6292 19.9961C35.6361 20.0684 35.6436 20.1476 35.6535 20.2269Z" fill="white"/>
</g>
<defs>
<clipPath id="clip0_56_307">
<rect width="32" height="23.12" fill="white" transform="translate(4 8)"/>
</clipPath>
</defs>
</svg>
